<svg id="Layer_1" data-name="Layer 1" xmlns="http://www.w3.org/2000/svg" viewBox="0 0 134 105"><defs><style>.cls-1{fill:#25383d;}</style></defs><path class="cls-1" d="M94.72,8.61a.07.07,0,0,0-.06,0,.09.09,0,0,0-.09.06,11.51,11.51,0,0,1-2.85,4.25,10.91,10.91,0,0,1-2.58,1.73c-6,3-13.63,4.42-18.12,8.05a7.9,7.9,0,0,0-2.5,4.18h0s0,0,0,0,0,0,0,0h0A7.9,7.9,0,0,0,66,22.66c-4.49-3.63-12.09-5.07-18.12-8a10.91,10.91,0,0,1-2.58-1.73,11.51,11.51,0,0,1-2.85-4.25.09.09,0,0,0-.09-.06.07.07,0,0,0-.06,0c-1,2-3.55,8.55,4.58,17.58,4.53,5,8.73,7.37,10.57,9.05,6,5.54,7,13.09,7,18.63h0c0,.64,1,1,4,1s4-.36,4-1h0c0-5.54,1-13.09,7-18.63,1.84-1.68,6-4,10.57-9C98.27,17.16,95.74,10.65,94.72,8.61ZM18.88,76.2a20.87,20.87,0,0,1-8.95-1.9l1.61-3.1a20.71,20.71,0,0,0,7,1.58c2.16,0,2.82-.48,2.82-.92,0-1.62-10.59-.36-10.59-5.48,0-2.48,3.61-4.5,8.13-4.5A18.34,18.34,0,0,1,27,63.62L25.4,66.7a18.45,18.45,0,0,0-6.76-1.48c-1.68,0-2.32.44-2.32.84,0,1.92,10.76.34,10.76,5.34C27.08,74.3,23.26,76.2,18.88,76.2Zm21.88-.5V71.08H35.48V75.7H29.54V62.38h5.94v5h5.28v-5h6V75.7ZM58,76.2c-5.34,0-8.9-3.2-8.9-7.06V68.9c0-3.88,3.56-7,8.9-7s8.9,3.14,8.9,7v.24C66.87,73,63.29,76.2,58,76.2Zm2.82-7.34a2.83,2.83,0,1,0-5.64,0v.34a2.83,2.83,0,1,0,5.64,0ZM80.86,75.7c-.8,0-1.3-.88-1.3-2.06V72.2c0-.84-.28-1.42-1.42-1.42h-3V75.7H69.22V62.38H79.78c3.62,0,5.64,1.74,5.64,3.86v.18c0,1.28-1.22,2.46-3.18,2.84,2.32.22,3.26,1.58,3.26,3.12v1.1a3.08,3.08,0,0,0,.72,2.16v.06ZM79.4,67.44c0-.9-.6-1.26-2.14-1.26h-2.1v2.56h2.1c1.54,0,2.14-.38,2.14-1.24Zm19.17-.84v9.1h-6V66.6H87.25V62.38h16.66V66.6Zm18.92,4v5.1h-6V70.6l-6.62-8.22h6.46l3.42,4.74,3.32-4.74h6.16ZM23.56,95.2,21.8,91.9H14l-1.7,3.3H9.64l7.2-13.32h2.08L26.24,95.2ZM17.82,84.48l-2.9,5.6h5.9ZM45.61,95.2h-2.2L39,85,34.55,95.2H32.33L26.59,81.88h2.7l4.24,10.38L38,81.88h2l4.66,10.38,4.25-10.38h2.64Zm20.2,0-1.76-3.3H56.22l-1.7,3.3H51.88l7.2-13.32h2.09L68.49,95.2ZM60.07,84.48l-2.9,5.6h5.9ZM83.49,95.2c-.68,0-1-.94-1.06-2.14l-.08-1.36c-.08-1.32-.62-1.88-3.12-1.88H74.51V95.2H72V81.88h7.26c4,0,5.8,1.6,5.8,3.66,0,1.46-.74,2.84-3.34,3.32,2.6.2,3.16,1.38,3.18,2.94l0,1.1a3,3,0,0,0,.82,2.24v.06Zm-.94-9.34c0-1-.78-1.9-2.92-1.9H74.51v4h5.34c1.84,0,2.7-.88,2.7-1.94ZM96.74,95.2H89.92V81.88h6.82c4.72,0,7.72,2.86,7.72,6.46v.44C104.46,92.32,101.46,95.2,96.74,95.2ZM102,88.38c0-2.58-2-4.42-5.28-4.42H92.42v9.2h4.26c3.26,0,5.28-1.88,5.28-4.46Zm13,7.34A17,17,0,0,1,107.66,94l.92-2A14.76,14.76,0,0,0,115,93.68c2.88,0,4.16-.94,4.16-2,0-3.18-11.16-1.06-11.16-5.94,0-2.48,2.68-4.38,6.9-4.38a12.55,12.55,0,0,1,6.56,1.9L120.14,85a10.42,10.42,0,0,0-5.28-1.54c-2.6,0-4.32.88-4.32,2,0,2.9,11.18,1,11.18,6C121.72,94.06,118.88,95.72,114.92,95.72Z"/></svg>